<?xml version="1.0" encoding="utf-8"?>
<!-- Generator: Adobe Illustrator 25.0.0, SVG Export Plug-In . SVG Version: 6.00 Build 0)  -->
<svg version="1.1" id="Capa_1" xmlns="http://www.w3.org/2000/svg" xmlns:xlink="http://www.w3.org/1999/xlink" x="0px" y="0px"
	 viewBox="0 0 512 512" style="enable-background:new 0 0 512 512;" xml:space="preserve">
<style type="text/css">
	.st0{fill:#068F74;}
	.st1{fill:#C3996B;}
</style>
<g>
	<g>
		<path class="st0" d="M441.9,0H70.1c-4.1,0-7.5,3.4-7.5,7.5v392.2c0,4.1,3.4,7.5,7.5,7.5s7.5-3.4,7.5-7.5V15h356.7v98.3
			c0,4.1,3.4,7.5,7.5,7.5s7.5-3.4,7.5-7.5V7.5C449.4,3.4,446,0,441.9,0z"/>
		<path class="st0" d="M441.9,140.8c-4.1,0-7.5,3.4-7.5,7.5V396h-93.5c-4.1,0-7.5,3.4-7.5,7.5V497H77.6v-62.3c0-4.1-3.4-7.5-7.5-7.5
			s-7.5,3.4-7.5,7.5v69.8c0,4.1,3.4,7.5,7.5,7.5h270.7c2,0,3.9-0.8,5.3-2.2l101-101c1.4-1.4,2.2-3.3,2.2-5.3V148.3
			C449.4,144.1,446,140.8,441.9,140.8L441.9,140.8z M423.8,411l-75.4,75.4V411L423.8,411z"/>
		<path class="st0" d="M173.7,161v34.3c0,4.1,3.4,7.5,7.5,7.5h149.5c4.1,0,7.5-3.4,7.5-7.5V161c0-26.3-21.3-47.7-47.5-47.9
			c8.1-8.6,13.1-20.2,13.1-32.9c0-26.4-21.5-47.9-47.9-47.9s-47.9,21.5-47.9,47.9c0,12.7,5,24.3,13.1,32.9
			C195,113.4,173.7,134.8,173.7,161L173.7,161z M256,47.3c18.1,0,32.9,14.8,32.9,32.9c0,18.1-14.8,32.9-32.9,32.9
			s-32.9-14.8-32.9-32.9C223.1,62.1,237.9,47.3,256,47.3z M188.7,161c0-18.1,14.8-32.9,32.9-32.9h68.7c18.1,0,32.9,14.8,32.9,32.9
			v26.8h-27.4v-12.7c0-4.1-3.4-7.5-7.5-7.5s-7.5,3.4-7.5,7.5v12.7h-49.6v-12.7c0-4.1-3.4-7.5-7.5-7.5s-7.5,3.4-7.5,7.5v12.7h-27.4
			L188.7,161L188.7,161z"/>
		<path class="st0" d="M157.6,227.7V260c0,4.1,3.4,7.5,7.5,7.5h34.5c4.1,0,7.5-3.4,7.5-7.5c0-4.1-3.4-7.5-7.5-7.5h-27v-17.3h166.8
			v17.3H234.6c-4.1,0-7.5,3.4-7.5,7.5c0,4.1,3.4,7.5,7.5,7.5h112.3c4.1,0,7.5-3.4,7.5-7.5v-32.3c0-4.1-3.4-7.5-7.5-7.5H165.1
			C160.9,220.2,157.6,223.6,157.6,227.7z"/>
		<path class="st1" d="M409.5,284.9H177.2c-4.1,0-7.5,3.4-7.5,7.5s3.4,7.5,7.5,7.5h232.3c4.1,0,7.5-3.4,7.5-7.5
			S413.7,284.9,409.5,284.9z"/>
		<path class="st1" d="M102.5,299.9h42.4c4.1,0,7.5-3.4,7.5-7.5s-3.4-7.5-7.5-7.5h-42.4c-4.1,0-7.5,3.4-7.5,7.5
			S98.3,299.9,102.5,299.9z"/>
		<path class="st1" d="M102.5,332.2h42.4c4.1,0,7.5-3.4,7.5-7.5s-3.4-7.5-7.5-7.5h-42.4c-4.1,0-7.5,3.4-7.5,7.5
			S98.3,332.2,102.5,332.2z"/>
		<path class="st1" d="M409.5,317.2H177.2c-4.1,0-7.5,3.4-7.5,7.5s3.4,7.5,7.5,7.5h232.3c4.1,0,7.5-3.4,7.5-7.5
			S413.7,317.2,409.5,317.2z"/>
		<path class="st1" d="M102.5,364.5h42.4c4.1,0,7.5-3.4,7.5-7.5s-3.4-7.5-7.5-7.5h-42.4c-4.1,0-7.5,3.4-7.5,7.5
			S98.3,364.5,102.5,364.5z"/>
		<path class="st1" d="M409.5,349.5H177.2c-4.1,0-7.5,3.4-7.5,7.5s3.4,7.5,7.5,7.5h232.3c4.1,0,7.5-3.4,7.5-7.5
			S413.7,349.5,409.5,349.5z"/>
		<path class="st0" d="M102.5,411h80.8c4.1,0,7.5-3.4,7.5-7.5s-3.4-7.5-7.5-7.5h-80.8c-4.1,0-7.5,3.4-7.5,7.5S98.3,411,102.5,411z"
			/>
		<path class="st0" d="M112.6,442.5c-4.1,0-7.5,3.4-7.5,7.5s3.4,7.5,7.5,7.5h60.6c4.1,0,7.5-3.4,7.5-7.5s-3.4-7.5-7.5-7.5H112.6z"/>
	</g>
</g>
<path class="st1" d="M267,492h-7.7c-6.2,0-11.3-5.1-11.3-11.3v-2.6c-2.7-0.8-5.2-1.9-7.7-3.2l-1.8,1.8c-4.5,4.5-11.7,4.4-16,0
	l-5.5-5.5c-4.4-4.4-4.5-11.5,0-16l1.8-1.8c-1.3-2.5-2.4-5.1-3.2-7.7H213c-6.2,0-11.3-5.1-11.3-11.3v-7.7c0-6.2,5.1-11.3,11.3-11.3
	h2.6c0.8-2.7,1.9-5.2,3.2-7.7l-1.8-1.8c-4.5-4.5-4.4-11.7,0-16l5.5-5.5c4.4-4.4,11.5-4.5,16,0l1.8,1.8c2.5-1.3,5.1-2.4,7.7-3.2v-2.6
	c0-6.2,5.1-11.3,11.3-11.3h7.7c6.2,0,11.3,5.1,11.3,11.3v2.6c2.7,0.8,5.2,1.9,7.7,3.2l1.8-1.8c4.5-4.5,11.7-4.4,16,0l5.5,5.5
	c4.4,4.4,4.5,11.5,0,16l-1.8,1.8c1.3,2.5,2.4,5.1,3.2,7.7h2.6c6.2,0,11.3,5.1,11.3,11.3v7.7c0,6.2-5.1,11.3-11.3,11.3h-2.6
	c-0.8,2.7-1.9,5.2-3.2,7.7l1.8,1.8c4.5,4.5,4.4,11.7,0,16l-5.5,5.5c-4.4,4.4-11.5,4.5-16,0l-1.8-1.8c-2.5,1.3-5.1,2.4-7.7,3.2v2.6
	C278.3,486.9,273.2,492,267,492z M241.4,467.3c3.4,2,7.1,3.6,11,4.6c1.6,0.4,2.7,1.8,2.7,3.5v5.3c0,2.3,1.8,4.1,4.1,4.1h7.7
	c2.3,0,4.1-1.8,4.1-4.1v-5.3c0-1.6,1.1-3.1,2.7-3.5c3.9-1,7.6-2.5,11-4.6c1.4-0.8,3.2-0.6,4.4,0.6l3.8,3.8c1.6,1.6,4.2,1.6,5.8,0
	l5.5-5.5c1.6-1.6,1.6-4.2,0-5.8l-3.8-3.8c-1.2-1.2-1.4-3-0.6-4.4c2-3.4,3.6-7.1,4.6-11c0.4-1.6,1.8-2.7,3.5-2.7h5.3
	c2.3,0,4.1-1.8,4.1-4.1v-7.7c0-2.3-1.8-4.1-4.1-4.1H308c-1.6,0-3.1-1.1-3.5-2.7c-1-3.9-2.5-7.6-4.6-11c-0.8-1.4-0.6-3.2,0.6-4.4
	l3.8-3.8c1.6-1.6,1.6-4.2,0-5.8l-5.5-5.5c-1.6-1.6-4.2-1.6-5.8,0l-3.8,3.8c-1.2,1.2-3,1.4-4.4,0.6c-3.4-2-7.1-3.6-11-4.6
	c-1.6-0.4-2.7-1.8-2.7-3.5v-5.3c0-2.3-1.8-4.1-4.1-4.1h-7.7c-2.3,0-4.1,1.8-4.1,4.1v5.3c0,1.6-1.1,3.1-2.7,3.5
	c-3.9,1-7.6,2.5-11,4.6c-1.4,0.8-3.2,0.6-4.4-0.6l-3.8-3.8c-1.6-1.6-4.2-1.6-5.8,0l-5.5,5.5c-1.6,1.6-1.6,4.2,0,5.8l3.8,3.8
	c1.2,1.2,1.4,3,0.6,4.4c-2,3.4-3.6,7.1-4.6,11c-0.4,1.6-1.8,2.7-3.5,2.7H213c-2.3,0-4.1,1.8-4.1,4.1v7.7c0,2.3,1.8,4.1,4.1,4.1h5.3
	c1.6,0,3.1,1.1,3.5,2.7c1,3.9,2.5,7.6,4.6,11c0.8,1.4,0.6,3.2-0.6,4.4l-3.8,3.8c-1.6,1.6-1.6,4.2,0,5.8l5.5,5.5
	c1.6,1.6,4.2,1.6,5.8,0l3.8-3.8C237.9,467,239.7,466.3,241.4,467.3L241.4,467.3z"/>
<path class="st1" d="M263.1,457.3c-14.7,0-26.7-12-26.7-26.7s12-26.7,26.7-26.7s26.7,12,26.7,26.7S277.9,457.3,263.1,457.3z
	 M263.1,411c-10.8,0-19.5,8.8-19.5,19.5c0,10.8,8.8,19.5,19.5,19.5c10.8,0,19.5-8.8,19.5-19.5C282.7,419.8,273.9,411,263.1,411
	L263.1,411z"/>
</svg>
