<svg id="Layer_1" data-name="Layer 1" xmlns="http://www.w3.org/2000/svg" xmlns:xlink="http://www.w3.org/1999/xlink" viewBox="0 0 469.89 128.56"><defs><style>.cls-1,.cls-6,.cls-9{fill:none;}.cls-2{clip-path:url(#clip-path);}.cls-3{clip-path:url(#clip-path-2);}.cls-4{fill:#58595b;}.cls-5{clip-path:url(#clip-path-3);}.cls-6{stroke:#c3996b;stroke-width:6.99px;}.cls-6,.cls-9{stroke-miterlimit:10;}.cls-7{clip-path:url(#clip-path-4);}.cls-8{fill:#006838;}.cls-9{stroke:#fff;stroke-width:1px;}</style><clipPath id="clip-path" transform="translate(-3.6 -2)"><rect class="cls-1" x="2.68" y="22.67" width="284" height="56"/></clipPath><clipPath id="clip-path-2" transform="translate(-3.6 -2)"><rect class="cls-1" x="2.68" y="22.67" width="284" height="56"/></clipPath><clipPath id="clip-path-3" transform="translate(-3.6 -2)"><rect class="cls-1" x="307.07" y="2.36" width="168.44" height="126.61"/></clipPath><clipPath id="clip-path-4" transform="translate(-3.6 -2)"><rect class="cls-1" x="299.73" y="2.36" width="168.44" height="126.61"/></clipPath></defs><title>sys-logo-ar</title><g class="cls-2"><g class="cls-3"><path class="cls-4" d="M3.6,58.52H4.89q0.79,0,1.67.07L8.3,58.74a5.75,5.75,0,0,1,1.45.32,5.3,5.3,0,0,1-2.19-4.54,6.24,6.24,0,0,1,.64-2.78A7.33,7.33,0,0,1,10,49.45a8.7,8.7,0,0,1,2.68-1.58,9.64,9.64,0,0,1,3.46-.6q1,0,2.28.09a18.28,18.28,0,0,1,2.55.36l-0.72,3.59a23.63,23.63,0,0,0-4.34-.41,4.15,4.15,0,0,0-3.1,1,3.79,3.79,0,0,0-.93,2.72,3.51,3.51,0,0,0,1.4,2.84,6.76,6.76,0,0,0,4.29,1.13h4.34v3.58H3.6V58.52Zm28.94,0H37.7v3.63H28.48V31.8q-0.81-.14-1.88-0.25l-2.06-.21V28.91q1.72-.23,3.86-0.32t4.13,0V58.52Zm4.25,0h6.42V41h4.07q0,2.58-.07,4.53t-0.16,3.38q-0.09,1.43-.23,2.39T46.6,52.9a30.57,30.57,0,0,1,2.48-4.44,25.49,25.49,0,0,1,3.34-4,17.14,17.14,0,0,1,4-2.95,9.12,9.12,0,0,1,4.33-1.13A8,8,0,0,1,67,43q2.32,2.62,2.32,7.87v7.69h5.15v3.63H36.79V58.52Zm28.24,0V51.42a15.2,15.2,0,0,0-.27-3,6.83,6.83,0,0,0-.88-2.33,4.45,4.45,0,0,0-1.58-1.52,4.73,4.73,0,0,0-2.37-.55,6.53,6.53,0,0,0-3.28,1.06,15.47,15.47,0,0,0-3.5,2.95,26.92,26.92,0,0,0-3.28,4.56,29.77,29.77,0,0,0-2.6,5.89H65ZM52.7,37.26a2.42,2.42,0,0,1-1.88-.83,2.85,2.85,0,0,1-.75-2,2.71,2.71,0,0,1,.75-1.9,2.45,2.45,0,0,1,1.88-.8,2.32,2.32,0,0,1,1.83.8,2.81,2.81,0,0,1,.7,1.9,3,3,0,0,1-.7,2A2.29,2.29,0,0,1,52.7,37.26ZM73.62,58.52H80V41H84.1V58.52h5.15v3.63H73.62V58.52Zm3.62,13.13a2.51,2.51,0,0,1-1.94-.85,3.1,3.1,0,0,1,0-4.09,2.65,2.65,0,0,1,3.89,0,3.1,3.1,0,0,1,0,4.09A2.51,2.51,0,0,1,77.24,71.64Zm6.91,0a2.55,2.55,0,0,1-2-.87,3,3,0,0,1-.79-2.07,2.81,2.81,0,0,1,.79-2,2.61,2.61,0,0,1,2-.83,2.47,2.47,0,0,1,1.92.83,2.91,2.91,0,0,1,.75,2,3.08,3.08,0,0,1-.75,2.07A2.41,2.41,0,0,1,84.15,71.69Zm4.2-13.17h6.42V41h4.07V58.52H104v3.63H88.35V58.52Zm8.31,12.85a2.42,2.42,0,0,1-1.88-.83,2.85,2.85,0,0,1-.75-2,2.71,2.71,0,0,1,.75-1.9,2.45,2.45,0,0,1,1.88-.8,2.31,2.31,0,0,1,1.83.8,2.8,2.8,0,0,1,.7,1.9,3,3,0,0,1-.7,2A2.29,2.29,0,0,1,96.67,71.37Zm6.42-12.85h6.19v-30h4.07v33.6H103.08V58.52Zm23.23,3.63h-4.07V31.75q-0.81-.14-1.88-0.25l-2.06-.21V28.86q1.72-.23,3.86-0.32t4.13,0v33.6Zm32.22,0a27.13,27.13,0,0,1-7.84-1,13.85,13.85,0,0,1-5.24-2.77,10.54,10.54,0,0,1-2.94-4.31,16.24,16.24,0,0,1-.93-5.64,22.3,22.3,0,0,1,.27-3.28q0.27-1.81.63-3.28l4.43-.92a26.33,26.33,0,0,0-.78,3.38,22.62,22.62,0,0,0-.26,3.56,14.63,14.63,0,0,0,.59,4.27,7.56,7.56,0,0,0,2.1,3.35,10.14,10.14,0,0,0,4.12,2.2,23.79,23.79,0,0,0,6.67.78H165V41.26q1.85-.41,3.55-0.64a25.42,25.42,0,0,1,3.41-.23,13.15,13.15,0,0,1,4.59.69,6.79,6.79,0,0,1,2.94,2A8,8,0,0,1,181,46.44a20.76,20.76,0,0,1,.45,4.59v7.48h5.2v3.63h-9.26V51q0-3.81-1.45-5.53a5.46,5.46,0,0,0-4.43-1.72q-0.5,0-1.29,0a8,8,0,0,0-1.2.14V62.14H158.53Zm-1.22,9.55a2.51,2.51,0,0,1-1.94-.85,3.1,3.1,0,0,1,0-4.09,2.65,2.65,0,0,1,3.89,0,3.1,3.1,0,0,1,0,4.09A2.51,2.51,0,0,1,157.31,71.69Zm6.91,0a2.55,2.55,0,0,1-2-.87,3,3,0,0,1-.79-2.07,2.81,2.81,0,0,1,.79-2,2.61,2.61,0,0,1,2-.83,2.47,2.47,0,0,1,1.92.83,2.91,2.91,0,0,1,.75,2,3.08,3.08,0,0,1-.75,2.07A2.41,2.41,0,0,1,164.22,71.74Zm21.55-13.22h6.42V41h4.07q0,2.58-.07,4.53T196,48.94q-0.09,1.43-.23,2.39t-0.23,1.56a30.57,30.57,0,0,1,2.48-4.44,25.49,25.49,0,0,1,3.34-4,17.14,17.14,0,0,1,4-2.95,9.12,9.12,0,0,1,4.33-1.13A8,8,0,0,1,216,43q2.32,2.62,2.32,7.85V62.14H185.78V58.52Zm28.24,0V51.42a15.2,15.2,0,0,0-.27-3,6.83,6.83,0,0,0-.88-2.33,4.45,4.45,0,0,0-1.58-1.52,4.73,4.73,0,0,0-2.37-.55,6.53,6.53,0,0,0-3.28,1.06,15.47,15.47,0,0,0-3.5,2.95,26.93,26.93,0,0,0-3.28,4.56,29.77,29.77,0,0,0-2.6,5.89H214ZM202.23,37.26a2.42,2.42,0,0,1-1.88-.83,2.85,2.85,0,0,1-.75-2,2.71,2.71,0,0,1,.75-1.9,2.45,2.45,0,0,1,1.88-.8,2.32,2.32,0,0,1,1.83.8,2.81,2.81,0,0,1,.7,1.9,3,3,0,0,1-.7,2A2.29,2.29,0,0,1,202.23,37.26Zm28.2,24.88h-4.07V31.75q-0.81-.14-1.88-0.25l-2.06-.21V28.86q1.72-.23,3.86-0.32t4.13,0v33.6Zm4.83,11.48a20.17,20.17,0,0,1-2.35-.14l0.45-4.13a15.15,15.15,0,0,0,2,.14q3.21,0,4.65-1.68t1.45-5.26V41h4.07v21.3a20.31,20.31,0,0,1-.47,4.54,8.88,8.88,0,0,1-1.65,3.56,7.89,7.89,0,0,1-3.14,2.34A12.67,12.67,0,0,1,235.26,73.62Zm23-48.56L257.54,25l-0.72,0a1.9,1.9,0,0,0-1.24.39,1.32,1.32,0,0,0-.47,1.08,1.72,1.72,0,0,0,.54,1.24,2.54,2.54,0,0,0,1.85.55h1.9v2.62h-8.9V28.22l1.45,0a5.07,5.07,0,0,1,1.58.25,2.43,2.43,0,0,1-.84-0.94,3.31,3.31,0,0,1-.25-1.4,3,3,0,0,1,1.22-2.55,5,5,0,0,1,3.12-.94q0.45,0,1,0t1.11,0.14ZM259.21,54l-4.07,1V37.81q-0.81-.14-1.88-0.25l-2.06-.21V34.92q1.72-.23,3.86-0.32t4.13,0V54Zm0.14,8.63a25.86,25.86,0,0,1-3.66-.25,30.8,30.8,0,0,1-3.21-.62L253,57.14a15.87,15.87,0,0,0,3.25,1,17.68,17.68,0,0,0,3.39.34,12.71,12.71,0,0,0,3.62-.44,6.12,6.12,0,0,0,2.33-1.22,4.22,4.22,0,0,0,1.24-1.93,8.37,8.37,0,0,0,.36-2.52V28.54h4.07V51.91a14.32,14.32,0,0,1-.61,4.29,8.24,8.24,0,0,1-2,3.37A9.49,9.49,0,0,1,265,61.8,17.1,17.1,0,0,1,259.34,62.6Zm23.72-.46H279V31.75q-0.81-.14-1.88-0.25l-2.06-.21V28.86q1.72-.23,3.86-0.32t4.13,0v33.6Z" transform="translate(-3.6 -2)"/></g></g><g class="cls-5"><polygon class="cls-6" points="369.99 103.69 341.07 124.74 310.15 124.97 348.15 100.43 366.49 100.31 369.99 103.69"/><polygon class="cls-6" points="391.35 124.35 345.05 124.71 371.68 105.32 391.35 124.35"/></g><g class="cls-7"><polygon class="cls-6" points="419.72 99.98 377.02 114.36 362.47 100.29 419.6 99.91 419.72 99.98"/></g><g class="cls-7"><polygon class="cls-6" points="457.85 123.78 387.33 124.33 378.88 116.16 422.25 101.56 457.85 123.78"/><path class="cls-8" d="M360.63,98.23l-0.2-7.47-0.15-7.47-0.12-7.47-0.08-7.47L360,60.89l0-7.47c0-5,0-10,0-14.93V37.81l0.6-.38,7.85-4.94,7.88-4.9,7.88-4.9,7.9-4.85,2.09-1.28V19l0,9.9L394,38.82l-0.09,9.9-0.15,9.9q-0.06,5-.18,9.9l-0.22,9.9-0.28,9.9c-0.1,3.3-.22,6.6-0.35,9.9-0.13-3.3-.25-6.6-0.35-9.9l-0.28-9.9-0.22-9.9q-0.11-5-.18-9.9l-0.15-9.9-0.09-9.9-0.08-9.9,0-9.9,2.09,1.16-7.88,4.89-7.91,4.85-7.91,4.85-7.93,4.81,0.6-1.06c-0.09,5-.17,10-0.3,14.93L362,60.91l-0.21,7.46-0.22,7.46-0.26,7.46L361,90.76Z" transform="translate(-3.6 -2)"/><path class="cls-8" d="M422.07,97.67c-0.1-2.46-.22-4.91-0.29-7.37l-0.24-7.37-0.2-7.37-0.17-7.37L421,60.84l-0.12-7.37-0.15-14.73,0.62,1.11c-3.93-2.35-7.83-4.76-11.75-7.14l-5.87-3.58-5.85-3.61L400,24.34l0,9.17c0,3.06,0,6.11-.07,9.17l-0.09,9.17L399.66,61q-0.07,4.58-.18,9.17l-0.22,9.17c-0.09,3.06-.16,6.11-0.28,9.17s-0.23,6.11-.36,9.17c-0.13-3.06-.26-6.11-0.36-9.17s-0.18-6.11-.28-9.17l-0.22-9.17q-0.11-4.58-.18-9.17l-0.15-9.17-0.09-9.17c0-3.06-.07-6.11-0.07-9.17l0-9.17V21.9l2.1,1.28,5.87,3.58,5.85,3.62c3.89,2.42,7.81,4.81,11.69,7.25l0.63,0.4v0.71l-0.15,14.73-0.12,7.37L423,68.2l-0.17,7.37-0.2,7.37-0.24,7.37c-0.08,2.46-.19,4.91-0.29,7.37" transform="translate(-3.6 -2)"/><path class="cls-4" d="M414.35,20.64l-15.76-8.4L390.71,8l-7.9-4.16-2-1.06V5.09l0,11.64,0.08,11.64L381,40l0.15,11.64q0.06,5.82.18,11.64l0.22,11.64,0.28,11.64c0.1,3.88.22,7.76,0.35,11.64,0.13-3.88.26-7.76,0.35-11.64l0.28-11.64L383,63.3q0.11-5.82.18-11.64L383.34,40l0.09-11.64,0.08-11.64,0-9.37,5.88,3.13,7.9,4.16,15.12,7.94,0.14,18.31L412.82,60,413,69.57l0.2,9.55,0.24,9.55,0.3,9.55,0.3-9.55,0.24-9.55,0.2-9.55L414.64,60,414.9,40.9,415,21.8V21Z" transform="translate(-3.6 -2)"/><path class="cls-9" d="M414.35,20.64l-15.76-8.4L390.71,8l-7.9-4.16-2-1.06V5.09l0,11.64,0.08,11.64L381,40l0.15,11.64q0.06,5.82.18,11.64l0.22,11.64,0.28,11.64c0.1,3.88.22,7.76,0.35,11.64,0.13-3.88.26-7.76,0.35-11.64l0.28-11.64L383,63.3q0.11-5.82.18-11.64L383.34,40l0.09-11.64,0.08-11.64,0-9.37,5.88,3.13,7.9,4.16,15.12,7.94,0.14,18.31L412.82,60,413,69.57l0.2,9.55,0.24,9.55,0.3,9.55,0.3-9.55,0.24-9.55,0.2-9.55L414.64,60,414.9,40.9,415,21.8V21Z" transform="translate(-3.6 -2)"/><path class="cls-8" d="M378.1,60l-7.84-4.41c-2.61-1.48-5.24-2.91-7.86-4.37l-7.88-4.34-7.91-4.28-2-1.09,0,2.28c0,2.27,0,4.54,0,6.8l0.08,6.8c0,2.27,0,4.54.1,6.8L345,71c0,2.27.12,4.54,0.18,6.8s0.12,4.54.21,6.8,0.16,4.54.26,6.8,0.21,4.54.33,6.8c0.12-2.27.24-4.54,0.33-6.8s0.18-4.54.26-6.8,0.15-4.54.21-6.8,0.14-4.54.18-6.8l0.14-6.8c0.05-2.27.07-4.54,0.1-6.8l0.08-6.8c0-1.51,0-3,0-4.52l5.88,3.25,7.91,4.29c2.64,1.42,5.27,2.87,7.92,4.26l7.34,3.9,0.17,8.57c0.05,3.1.16,6.2,0.24,9.29s0.21,6.2.32,9.29l0.2,4.65,0.24,4.65,0.24-4.65,0.2-4.65c0.1-3.1.24-6.2,0.32-9.29s0.19-6.2.24-9.29l0.18-9.29V60.37Z" transform="translate(-3.6 -2)"/><path class="cls-9" d="M378.1,60l-7.84-4.41c-2.61-1.48-5.24-2.91-7.86-4.37l-7.88-4.34-7.91-4.28-2-1.09,0,2.28c0,2.27,0,4.54,0,6.8l0.08,6.8c0,2.27,0,4.54.1,6.8L345,71c0,2.27.12,4.54,0.18,6.8s0.12,4.54.21,6.8,0.16,4.54.26,6.8,0.21,4.54.33,6.8c0.12-2.27.24-4.54,0.33-6.8s0.18-4.54.26-6.8,0.15-4.54.21-6.8,0.14-4.54.18-6.8l0.14-6.8c0.05-2.27.07-4.54,0.1-6.8l0.08-6.8c0-1.51,0-3,0-4.52l5.88,3.25,7.91,4.29c2.64,1.42,5.27,2.87,7.92,4.26l7.34,3.9,0.17,8.57c0.05,3.1.16,6.2,0.24,9.29s0.21,6.2.32,9.29l0.2,4.65,0.24,4.65,0.24-4.65,0.2-4.65c0.1-3.1.24-6.2,0.32-9.29s0.19-6.2.24-9.29l0.18-9.29V60.37Z" transform="translate(-3.6 -2)"/></g><path class="cls-4" d="M9.12,87v26.66H5.68V87H9.12Z" transform="translate(-3.6 -2)"/><path class="cls-4" d="M24.74,87.32a49.3,49.3,0,0,1,7.32-.55c4.94,0,8.46,1.15,10.8,3.32s3.76,5.26,3.76,9.57-1.34,7.91-3.84,10.36-6.6,3.84-11.79,3.84a55.65,55.65,0,0,1-6.25-.32V87.32Zm3.44,23.57a21.72,21.72,0,0,0,3.48.2C39,111.09,43,107,43,99.78c0-6.29-3.52-10.28-10.8-10.28a19.59,19.59,0,0,0-4,.36v21Z" transform="translate(-3.6 -2)"/><path class="cls-4" d="M60.7,87h3.44v23.77H75.53v2.89H60.7V87Z" transform="translate(-3.6 -2)"/><path class="cls-4" d="M102.78,101.13H92.42v9.61H104v2.89H89V87h14.4v2.89h-11v8.42h10.36v2.85Z" transform="translate(-3.6 -2)"/><path class="cls-4" d="M136,87h3.44v23.77h11.39v2.89H136V87Z" transform="translate(-3.6 -2)"/><path class="cls-4" d="M168.63,105.24l-2.77,8.38H162.3L171.36,87h4.15l9.1,26.66h-3.68l-2.85-8.38h-9.45Zm8.74-2.69-2.61-7.67c-0.59-1.74-1-3.32-1.38-4.87H173.3c-0.4,1.58-.83,3.2-1.34,4.83l-2.61,7.71h8Z" transform="translate(-3.6 -2)"/><path class="cls-4" d="M198.13,113.62V87h3.76l8.54,13.49a75.54,75.54,0,0,1,4.79,8.66l0.08,0c-0.32-3.56-.4-6.8-0.4-11V87h3.24v26.66h-3.48L206.2,100.1a84.7,84.7,0,0,1-5-8.9l-0.12,0c0.2,3.36.28,6.57,0.28,11v11.39h-3.24Z" transform="translate(-3.6 -2)"/><path class="cls-4" d="M233.77,87.32a49.3,49.3,0,0,1,7.32-.55c4.94,0,8.46,1.15,10.8,3.32s3.76,5.26,3.76,9.57-1.34,7.91-3.84,10.36-6.6,3.84-11.79,3.84a55.66,55.66,0,0,1-6.25-.32V87.32Zm3.44,23.57a21.72,21.72,0,0,0,3.48.2C248,111.09,252,107,252,99.78c0-6.29-3.52-10.28-10.8-10.28a19.59,19.59,0,0,0-4,.36v21Z" transform="translate(-3.6 -2)"/><path class="cls-4" d="M269.24,109.43a12.2,12.2,0,0,0,6.17,1.74c3.52,0,5.58-1.86,5.58-4.55,0-2.49-1.42-3.92-5-5.3-4.35-1.54-7-3.8-7-7.55,0-4.15,3.44-7.24,8.62-7.24a12.11,12.11,0,0,1,5.89,1.31l-0.95,2.81a10.62,10.62,0,0,0-5.06-1.27c-3.64,0-5,2.18-5,4,0,2.49,1.62,3.72,5.3,5.14,4.51,1.74,6.8,3.92,6.8,7.83,0,4.11-3,7.67-9.33,7.67a13.77,13.77,0,0,1-6.8-1.7Z" transform="translate(-3.6 -2)"/></svg>