<?xml version="1.0" encoding="utf-8"?>
<!-- Generator: Adobe Illustrator 25.0.0, SVG Export Plug-In . SVG Version: 6.00 Build 0)  -->
<svg version="1.1" id="Capa_1" xmlns="http://www.w3.org/2000/svg" xmlns:xlink="http://www.w3.org/1999/xlink" x="0px" y="0px"
	 viewBox="0 0 512 512" style="enable-background:new 0 0 512 512;" xml:space="preserve">
<style type="text/css">
	.st0{fill:#C3996B;}
</style>
<g>
	<path class="st0" d="M424,368.9c-5.3-13.3-8-27.3-8-41.6V224c0-71.7-47.7-131.8-112.8-152.1C299.3,49.3,279.7,32,256,32
		s-43.3,17.3-47.2,39.9C143.7,92.2,96,152.3,96,224v103.3c0,14.3-2.7,28.3-8,41.6l-22.8,57.1c-2,4.9-1.4,10.5,1.6,14.9
		c3,4.4,7.9,7,13.3,7h121.6c11.3,19.3,31.6,32,54.4,32s43-12.7,54.4-32H432c5.3,0,10.3-2.6,13.3-7c3-4.4,3.6-10,1.6-14.9
		C446.9,426.1,424,368.9,424,368.9L424,368.9z M103.6,416l14.1-35.2c6.8-17.1,10.3-35.1,10.3-53.5V224c0-70.6,57.4-128,128-128
		s128,57.4,128,128v103.3c0,18.4,3.5,36.4,10.3,53.5l14.1,35.2H103.6z"/>
	<path class="st0" d="M30.1,135.5C10.4,172.5,0,214.1,0,256s10.4,83.5,30.1,120.5l28.2-15.1C40.9,328.6,32,293.2,32,256
		c0-37.2,8.9-72.6,26.4-105.4C58.4,150.6,30.1,135.5,30.1,135.5z"/>
	<path class="st0" d="M481.9,135.5l-28.2,15.1C471.1,183.4,480,218.8,480,256c0,37.2-8.9,72.6-26.4,105.4l28.2,15.1
		C501.6,339.5,512,297.9,512,256C512,214.1,501.6,172.5,481.9,135.5z"/>
</g>
</svg>
